<?xml version="1.0" ?><svg data-name="Layer 1" id="Layer_1" viewBox="0 0 512 512" xmlns="http://www.w3.org/2000/svg"><defs><style>.cls-1{fill:none;stroke:#083b44;stroke-linecap:round;stroke-linejoin:round;stroke-width:12px;}</style></defs><title/><path class="cls-1" d="M269.71,160H338a14,14,0,0,1,14,14v68.29a0,0,0,0,1,0,0H269.71a0,0,0,0,1,0,0V160A0,0,0,0,1,269.71,160Z"/><path class="cls-1" d="M174,160h68.29a0,0,0,0,1,0,0v82.29a0,0,0,0,1,0,0H160a0,0,0,0,1,0,0V174A14,14,0,0,1,174,160Z"/><path class="cls-1" d="M160,269.71h82.29a0,0,0,0,1,0,0V352a0,0,0,0,1,0,0H174a14,14,0,0,1-14-14V269.71A0,0,0,0,1,160,269.71Z"/><path class="cls-1" d="M269.71,269.71H352a0,0,0,0,1,0,0V338a14,14,0,0,1-14,14H269.71a0,0,0,0,1,0,0V269.71A0,0,0,0,1,269.71,269.71Z"/></svg>